<svg viewBox="0 0 200 120" xmlns="http://www.w3.org/2000/svg">
  <!-- Light background -->
  <rect width="200" height="120" fill="#f8f9fa"/>

  <!-- Title -->
  <rect x="15" y="10" width="80" height="8" rx="2" fill="#1B4565"/>

  <!-- Code block (left) -->
  <rect x="12" y="25" width="95" height="80" rx="4" fill="#1e293b"/>
  <circle cx="20" cy="32" r="2" fill="#ef4444"/>
  <circle cx="27" cy="32" r="2" fill="#f59e0b"/>
  <circle cx="34" cy="32" r="2" fill="#10b981"/>
  <rect x="18" y="42" width="40" height="3" rx="1" fill="#3E9BA4"/>
  <rect x="22" y="50" width="50" height="2" rx="1" fill="#f8f9fa"/>
  <rect x="22" y="57" width="45" height="2" rx="1" fill="#f8f9fa"/>
  <rect x="18" y="64" width="30" height="2" rx="1" fill="#3E9BA4"/>
  <rect x="18" y="71" width="55" height="2" rx="1" fill="#9ca3af"/>

  <!-- Explanation (right) -->
  <rect x="113" y="25" width="75" height="80" rx="4" fill="white" stroke="#dee2e6"/>
  <rect x="119" y="32" width="45" height="5" rx="1" fill="#1B4565"/>
  <rect x="119" y="44" width="63" height="3" rx="1" fill="#9ca3af"/>
  <rect x="119" y="51" width="58" height="3" rx="1" fill="#9ca3af"/>
  <rect x="119" y="58" width="60" height="3" rx="1" fill="#9ca3af"/>
  <rect x="119" y="72" width="45" height="5" rx="1" fill="#3E9BA4"/>
  <rect x="119" y="84" width="55" height="3" rx="1" fill="#9ca3af"/>
</svg>
