<svg viewBox="0 0 200 120" xmlns="http://www.w3.org/2000/svg">
  <!-- Light background -->
  <rect width="200" height="120" fill="#f8f9fa"/>

  <!-- Title -->
  <rect x="15" y="10" width="80" height="8" rx="2" fill="#1B4565"/>

  <!-- Table -->
  <rect x="12" y="25" width="175" height="80" rx="4" fill="white" stroke="#dee2e6"/>

  <!-- Header row -->
  <rect x="12" y="25" width="175" height="14" rx="4" fill="#1B4565"/>
  <rect x="20" y="29" width="35" height="5" rx="1" fill="white"/>
  <rect x="70" y="29" width="35" height="5" rx="1" fill="white"/>
  <rect x="120" y="29" width="35" height="5" rx="1" fill="white"/>

  <!-- Row 1 -->
  <rect x="20" y="46" width="30" height="4" rx="1" fill="#374151"/>
  <rect x="70" y="46" width="40" height="4" rx="1" fill="#9ca3af"/>
  <rect x="120" y="46" width="35" height="4" rx="1" fill="#9ca3af"/>

  <!-- Row 2 -->
  <rect x="20" y="58" width="35" height="4" rx="1" fill="#374151"/>
  <rect x="70" y="58" width="30" height="4" rx="1" fill="#9ca3af"/>
  <rect x="120" y="58" width="40" height="4" rx="1" fill="#9ca3af"/>

  <!-- Row 3 -->
  <rect x="20" y="70" width="28" height="4" rx="1" fill="#374151"/>
  <rect x="70" y="70" width="38" height="4" rx="1" fill="#9ca3af"/>
  <rect x="120" y="70" width="30" height="4" rx="1" fill="#9ca3af"/>

  <!-- Row 4 -->
  <rect x="20" y="82" width="32" height="4" rx="1" fill="#374151"/>
  <rect x="70" y="82" width="35" height="4" rx="1" fill="#9ca3af"/>
  <rect x="120" y="82" width="38" height="4" rx="1" fill="#9ca3af"/>

  <!-- Vertical dividers -->
  <line x1="60" y1="39" x2="60" y2="105" stroke="#dee2e6" stroke-width="1"/>
  <line x1="110" y1="39" x2="110" y2="105" stroke="#dee2e6" stroke-width="1"/>
</svg>
