<svg viewBox="0 0 200 120" xmlns="http://www.w3.org/2000/svg">
  <!-- Light background -->
  <rect width="200" height="120" fill="#f8f9fa"/>

  <!-- Title -->
  <rect x="15" y="10" width="80" height="8" rx="2" fill="#1B4565"/>

  <!-- Pros column (left) -->
  <rect x="12" y="25" width="85" height="80" rx="4" fill="#ecfdf5" stroke="#10b981"/>
  <rect x="18" y="31" width="25" height="5" rx="1" fill="#10b981"/>

  <!-- Pros items -->
  <circle cx="22" cy="48" r="3" fill="#10b981"/>
  <rect x="30" y="45" width="55" height="4" rx="1" fill="#374151"/>
  <circle cx="22" cy="60" r="3" fill="#10b981"/>
  <rect x="30" y="57" width="50" height="4" rx="1" fill="#374151"/>
  <circle cx="22" cy="72" r="3" fill="#10b981"/>
  <rect x="30" y="69" width="60" height="4" rx="1" fill="#374151"/>

  <!-- Cons column (right) -->
  <rect x="103" y="25" width="85" height="80" rx="4" fill="#fef2f2" stroke="#ef4444"/>
  <rect x="109" y="31" width="25" height="5" rx="1" fill="#ef4444"/>

  <!-- Cons items -->
  <circle cx="113" cy="48" r="3" fill="#ef4444"/>
  <rect x="121" y="45" width="55" height="4" rx="1" fill="#374151"/>
  <circle cx="113" cy="60" r="3" fill="#ef4444"/>
  <rect x="121" y="57" width="50" height="4" rx="1" fill="#374151"/>
  <circle cx="113" cy="72" r="3" fill="#ef4444"/>
  <rect x="121" y="69" width="60" height="4" rx="1" fill="#374151"/>
</svg>
