<svg viewBox="0 0 200 120" xmlns="http://www.w3.org/2000/svg">
  <!-- Light background -->
  <rect width="200" height="120" fill="#f8f9fa"/>

  <!-- Title -->
  <rect x="15" y="10" width="80" height="8" rx="2" fill="#1B4565"/>

  <!-- Code block -->
  <rect x="12" y="25" width="175" height="80" rx="4" fill="#1e293b"/>

  <!-- Window buttons -->
  <circle cx="22" cy="33" r="3" fill="#ef4444"/>
  <circle cx="32" cy="33" r="3" fill="#f59e0b"/>
  <circle cx="42" cy="33" r="3" fill="#10b981"/>

  <!-- Code lines -->
  <rect x="20" y="45" width="50" height="3" rx="1" fill="#3E9BA4"/>
  <rect x="75" y="45" width="30" height="3" rx="1" fill="#9ca3af"/>

  <rect x="28" y="55" width="60" height="3" rx="1" fill="#f8f9fa"/>
  <rect x="93" y="55" width="40" height="3" rx="1" fill="#3E9BA4"/>

  <rect x="28" y="65" width="45" height="3" rx="1" fill="#f8f9fa"/>

  <rect x="20" y="75" width="25" height="3" rx="1" fill="#3E9BA4"/>
  <rect x="50" y="75" width="50" height="3" rx="1" fill="#9ca3af"/>

  <rect x="20" y="85" width="70" height="3" rx="1" fill="#f8f9fa"/>
</svg>
