<svg viewBox="0 0 200 120" xmlns="http://www.w3.org/2000/svg">
  <!-- Light background -->
  <rect width="200" height="120" fill="#f8f9fa"/>

  <!-- Title -->
  <rect x="15" y="10" width="80" height="8" rx="2" fill="#1B4565"/>

  <!-- Stat Card 1 -->
  <rect x="12" y="28" width="55" height="55" rx="4" fill="white" stroke="#dee2e6"/>
  <rect x="22" y="38" width="35" height="12" rx="2" fill="#1B4565"/>
  <rect x="22" y="56" width="40" height="4" rx="1" fill="#9ca3af"/>
  <rect x="22" y="64" width="35" height="3" rx="1" fill="#dee2e6"/>

  <!-- Stat Card 2 (Highlighted) -->
  <defs>
    <linearGradient id="statGrad" x1="0%" y1="0%" x2="100%" y2="100%">
      <stop offset="0%" style="stop-color:#1B4565"/>
      <stop offset="100%" style="stop-color:#3E9BA4"/>
    </linearGradient>
  </defs>
  <rect x="72" y="28" width="55" height="55" rx="4" fill="url(#statGrad)"/>
  <rect x="82" y="38" width="35" height="12" rx="2" fill="white"/>
  <rect x="82" y="56" width="40" height="4" rx="1" fill="white" opacity="0.7"/>
  <rect x="82" y="64" width="35" height="3" rx="1" fill="white" opacity="0.5"/>

  <!-- Stat Card 3 -->
  <rect x="132" y="28" width="55" height="55" rx="4" fill="white" stroke="#dee2e6"/>
  <rect x="142" y="38" width="35" height="12" rx="2" fill="#3E9BA4"/>
  <rect x="142" y="56" width="40" height="4" rx="1" fill="#9ca3af"/>
  <rect x="142" y="64" width="35" height="3" rx="1" fill="#dee2e6"/>

  <!-- Bottom text -->
  <rect x="60" y="95" width="80" height="4" rx="1" fill="#9ca3af"/>
</svg>
