<svg viewBox="0 0 200 120" xmlns="http://www.w3.org/2000/svg">
  <!-- Light background -->
  <rect width="200" height="120" fill="#f8f9fa"/>

  <!-- Title -->
  <rect x="15" y="10" width="80" height="8" rx="2" fill="#1B4565"/>

  <!-- Grid of icons - 3x2 -->
  <!-- Row 1 -->
  <g transform="translate(20, 28)">
    <rect width="50" height="38" rx="4" fill="white" stroke="#dee2e6"/>
    <circle cx="25" cy="16" r="8" fill="#3E9BA4"/>
    <rect x="8" y="28" width="34" height="3" rx="1" fill="#374151"/>
  </g>

  <g transform="translate(75, 28)">
    <rect width="50" height="38" rx="4" fill="white" stroke="#dee2e6"/>
    <circle cx="25" cy="16" r="8" fill="#1B4565"/>
    <rect x="8" y="28" width="34" height="3" rx="1" fill="#374151"/>
  </g>

  <g transform="translate(130, 28)">
    <rect width="50" height="38" rx="4" fill="white" stroke="#dee2e6"/>
    <circle cx="25" cy="16" r="8" fill="#3E9BA4"/>
    <rect x="8" y="28" width="34" height="3" rx="1" fill="#374151"/>
  </g>

  <!-- Row 2 -->
  <g transform="translate(20, 72)">
    <rect width="50" height="38" rx="4" fill="white" stroke="#dee2e6"/>
    <circle cx="25" cy="16" r="8" fill="#1B4565"/>
    <rect x="8" y="28" width="34" height="3" rx="1" fill="#374151"/>
  </g>

  <g transform="translate(75, 72)">
    <rect width="50" height="38" rx="4" fill="white" stroke="#dee2e6"/>
    <circle cx="25" cy="16" r="8" fill="#3E9BA4"/>
    <rect x="8" y="28" width="34" height="3" rx="1" fill="#374151"/>
  </g>

  <g transform="translate(130, 72)">
    <rect width="50" height="38" rx="4" fill="white" stroke="#dee2e6"/>
    <circle cx="25" cy="16" r="8" fill="#1B4565"/>
    <rect x="8" y="28" width="34" height="3" rx="1" fill="#374151"/>
  </g>
</svg>
