<svg viewBox="0 0 200 120" xmlns="http://www.w3.org/2000/svg">
  <!-- Background -->
  <rect width="200" height="120" fill="#1e293b"/>

  <!-- Browser window mockup -->
  <rect x="25" y="20" width="150" height="85" rx="4" fill="#374151"/>

  <!-- Browser bar -->
  <rect x="25" y="20" width="150" height="14" rx="4" fill="#4b5563"/>
  <circle cx="35" cy="27" r="3" fill="#ef4444"/>
  <circle cx="45" cy="27" r="3" fill="#f59e0b"/>
  <circle cx="55" cy="27" r="3" fill="#10b981"/>

  <!-- URL bar -->
  <rect x="65" y="23" width="100" height="8" rx="2" fill="#1e293b"/>
  <rect x="70" y="25" width="50" height="4" rx="1" fill="#6b7280"/>

  <!-- Content area -->
  <rect x="30" y="38" width="140" height="62" fill="white"/>

  <!-- App UI mockup -->
  <rect x="35" y="43" width="60" height="6" rx="1" fill="#1B4565"/>
  <rect x="35" y="55" width="130" height="4" rx="1" fill="#e9ecef"/>
  <rect x="35" y="63" width="130" height="4" rx="1" fill="#e9ecef"/>
  <rect x="35" y="71" width="100" height="4" rx="1" fill="#e9ecef"/>
  <rect x="35" y="85" width="40" height="10" rx="2" fill="#3E9BA4"/>
</svg>
