<svg viewBox="0 0 200 120" xmlns="http://www.w3.org/2000/svg">
  <!-- Light background -->
  <rect width="200" height="120" fill="#f8f9fa"/>

  <!-- Title -->
  <rect x="15" y="10" width="80" height="8" rx="2" fill="#1B4565"/>

  <!-- Stat Card 1 -->
  <rect x="12" y="28" width="40" height="45" rx="4" fill="white" stroke="#dee2e6"/>
  <rect x="18" y="36" width="28" height="10" rx="2" fill="#1B4565"/>
  <rect x="18" y="52" width="32" height="3" rx="1" fill="#9ca3af"/>

  <!-- Stat Card 2 -->
  <rect x="57" y="28" width="40" height="45" rx="4" fill="white" stroke="#dee2e6"/>
  <rect x="63" y="36" width="28" height="10" rx="2" fill="#3E9BA4"/>
  <rect x="63" y="52" width="32" height="3" rx="1" fill="#9ca3af"/>

  <!-- Stat Card 3 -->
  <rect x="102" y="28" width="40" height="45" rx="4" fill="white" stroke="#dee2e6"/>
  <rect x="108" y="36" width="28" height="10" rx="2" fill="#1B4565"/>
  <rect x="108" y="52" width="32" height="3" rx="1" fill="#9ca3af"/>

  <!-- Stat Card 4 -->
  <rect x="147" y="28" width="40" height="45" rx="4" fill="white" stroke="#dee2e6"/>
  <rect x="153" y="36" width="28" height="10" rx="2" fill="#3E9BA4"/>
  <rect x="153" y="52" width="32" height="3" rx="1" fill="#9ca3af"/>

  <!-- Bottom description -->
  <rect x="12" y="85" width="175" height="3" rx="1" fill="#dee2e6"/>
  <rect x="12" y="92" width="150" height="3" rx="1" fill="#dee2e6"/>
</svg>
